<?xml version="1.0" encoding="utf-8"?>
<!-- Generator: Adobe Illustrator 16.0.0, SVG Export Plug-In . SVG Version: 6.00 Build 0)  -->
<!DOCTYPE svg PUBLIC "-//W3C//DTD SVG 1.1//EN" "http://www.w3.org/Graphics/SVG/1.1/DTD/svg11.dtd">
<svg version="1.1" id="Layer_1" xmlns="http://www.w3.org/2000/svg" xmlns:xlink="http://www.w3.org/1999/xlink" x="0px" y="0px"
	 width="257.157px" height="60px" viewBox="0 0 257.157 60" enable-background="new 0 0 257.157 60" xml:space="preserve">
<g>
	<g>
		<path fill="#656565" d="M81.676,48.809c-2.67,0-5.128-0.469-7.367-1.409c-2.243-0.937-4.179-2.206-5.81-3.805
			c-1.632-1.601-2.901-3.477-3.807-5.638c-0.908-2.158-1.36-4.475-1.36-6.947v-0.099c0-2.472,0.46-4.788,1.385-6.945
			c0.922-2.159,2.199-4.057,3.832-5.688c1.63-1.631,3.576-2.916,5.834-3.856s4.724-1.409,7.392-1.409
			c2.67,0,5.125,0.469,7.367,1.409s4.179,2.21,5.812,3.808c1.63,1.6,2.899,3.479,3.805,5.637c0.907,2.161,1.361,4.476,1.361,6.947
			v0.099c0,2.472-0.463,4.79-1.385,6.945c-0.922,2.161-2.2,4.059-3.832,5.688c-1.63,1.629-3.576,2.918-5.834,3.854
			C86.81,48.34,84.344,48.809,81.676,48.809z M81.773,41.788c1.517,0,2.918-0.279,4.203-0.839c1.286-0.561,2.382-1.336,3.288-2.325
			c0.907-0.986,1.614-2.131,2.126-3.437c0.512-1.302,0.768-2.694,0.768-4.178v-0.099c0-1.481-0.256-2.883-0.768-4.202
			c-0.512-1.318-1.235-2.475-2.175-3.461c-0.94-0.991-2.053-1.771-3.338-2.35c-1.285-0.576-2.687-0.864-4.201-0.864
			c-1.552,0-2.958,0.279-4.228,0.838c-1.27,0.562-2.358,1.336-3.264,2.327c-0.907,0.987-1.616,2.132-2.125,3.436
			c-0.511,1.303-0.768,2.693-0.768,4.178v0.099c0,1.483,0.257,2.884,0.768,4.205c0.51,1.318,1.234,2.47,2.175,3.46
			c0.939,0.988,2.042,1.772,3.313,2.347C78.815,41.499,80.224,41.788,81.773,41.788z"/>
		<path fill="#656565" d="M102.145,21.715h7.516v3.808c0.924-1.253,2.035-2.283,3.338-3.09c1.301-0.809,2.942-1.211,4.92-1.211
			c1.549,0,3.048,0.297,4.498,0.889c1.453,0.594,2.737,1.475,3.859,2.645c1.119,1.17,2.019,2.604,2.694,4.301
			c0.675,1.7,1.013,3.652,1.013,5.859v0.1c0,2.209-0.338,4.162-1.013,5.858c-0.675,1.697-1.565,3.133-2.67,4.301
			c-1.105,1.173-2.381,2.054-3.832,2.648c-1.452,0.594-2.966,0.889-4.548,0.889c-2.012,0-3.667-0.397-4.971-1.187
			c-1.302-0.79-2.396-1.712-3.287-2.768v11.371h-7.516V21.715z M115.989,42.332c0.889,0,1.722-0.172,2.498-0.518
			c0.773-0.348,1.458-0.843,2.051-1.484c0.592-0.641,1.064-1.408,1.409-2.298c0.347-0.89,0.52-1.896,0.52-3.018v-0.1
			c0-1.087-0.173-2.082-0.52-2.99c-0.345-0.907-0.816-1.682-1.409-2.325c-0.593-0.642-1.278-1.137-2.051-1.482
			c-0.776-0.345-1.609-0.52-2.498-0.52s-1.722,0.175-2.496,0.52c-0.775,0.346-1.451,0.841-2.028,1.482
			c-0.577,0.644-1.037,1.418-1.385,2.325c-0.345,0.908-0.518,1.903-0.518,2.99v0.1c0,1.087,0.173,2.086,0.518,2.991
			c0.348,0.906,0.808,1.684,1.385,2.324c0.577,0.642,1.253,1.137,2.028,1.484C114.267,42.16,115.101,42.332,115.989,42.332z"/>
		<path fill="#656565" d="M145.62,48.809c-1.979,0-3.814-0.329-5.514-0.986c-1.696-0.661-3.162-1.6-4.399-2.816
			c-1.237-1.223-2.199-2.666-2.891-4.331c-0.693-1.661-1.041-3.517-1.041-5.559v-0.102c0-1.877,0.321-3.658,0.964-5.34
			c0.645-1.682,1.543-3.147,2.695-4.4c1.154-1.251,2.53-2.241,4.129-2.967c1.6-0.725,3.37-1.086,5.316-1.086
			c2.206,0,4.118,0.394,5.733,1.187c1.617,0.791,2.958,1.854,4.03,3.188c1.072,1.335,1.864,2.867,2.374,4.598
			c0.511,1.731,0.766,3.537,0.766,5.417c0,0.295-0.008,0.61-0.024,0.938c-0.016,0.331-0.04,0.676-0.074,1.038h-18.442
			c0.364,1.716,1.112,3.009,2.25,3.881c1.138,0.873,2.547,1.313,4.228,1.313c1.251,0,2.373-0.216,3.363-0.646
			c0.988-0.427,2.01-1.118,3.064-2.076l4.304,3.81c-1.254,1.547-2.771,2.76-4.552,3.633C150.12,48.372,148.026,48.809,145.62,48.809
			z M150.464,32.89c-0.227-1.681-0.821-3.042-1.777-4.08c-0.956-1.037-2.226-1.557-3.807-1.557c-1.582,0-2.861,0.512-3.832,1.53
			c-0.973,1.023-1.607,2.393-1.904,4.106H150.464z"/>
		<path fill="#656565" d="M159.415,21.715h7.518v3.787c0.428-0.562,0.896-1.103,1.408-1.616c0.512-0.517,1.08-0.971,1.706-1.371
			c0.625-0.397,1.318-0.712,2.078-0.946c0.757-0.233,1.613-0.347,2.569-0.347c2.867,0,5.084,0.873,6.65,2.619
			c1.565,1.746,2.35,4.152,2.35,7.219v17.156h-7.518V33.471c0-1.776-0.395-3.118-1.186-4.021c-0.792-0.903-1.913-1.355-3.361-1.355
			c-1.451,0-2.598,0.452-3.437,1.355c-0.841,0.903-1.261,2.245-1.261,4.021v14.745h-7.518V21.715z"/>
		<path fill="#A31F34" d="M187.056,13.607h8.209l9.095,14.634l9.099-14.634h8.207v34.608h-7.513V25.619l-9.742,14.784h-0.196
			l-9.645-14.634v22.446h-7.514V13.607z"/>
		<path fill="#A31F34" d="M242.235,48.809c-2.537,0-4.893-0.459-7.071-1.385c-2.175-0.922-4.052-2.18-5.636-3.78
			c-1.583-1.601-2.819-3.485-3.709-5.66c-0.888-2.179-1.333-4.501-1.333-6.974v-0.099c0-2.472,0.445-4.788,1.333-6.945
			c0.89-2.159,2.126-4.057,3.709-5.688c1.584-1.631,3.477-2.916,5.687-3.856c2.207-0.94,4.647-1.409,7.317-1.409
			c1.613,0,3.091,0.132,4.425,0.396c1.336,0.265,2.547,0.625,3.635,1.089c1.088,0.461,2.093,1.021,3.016,1.682
			c0.923,0.657,1.781,1.385,2.57,2.175l-4.846,5.586c-1.349-1.218-2.728-2.175-4.128-2.866c-1.401-0.692-2.974-1.038-4.721-1.038
			c-1.453,0-2.793,0.279-4.03,0.838c-1.235,0.562-2.299,1.336-3.188,2.327c-0.89,0.987-1.582,2.132-2.077,3.436
			c-0.494,1.303-0.742,2.693-0.742,4.178v0.099c0,1.483,0.248,2.884,0.742,4.205c0.495,1.318,1.178,2.47,2.053,3.46
			c0.872,0.988,1.929,1.772,3.164,2.347c1.235,0.576,2.594,0.865,4.079,0.865c1.979,0,3.65-0.362,5.02-1.086
			c1.366-0.726,2.726-1.714,4.079-2.968l4.844,4.895c-0.89,0.958-1.814,1.814-2.768,2.571c-0.958,0.758-2.003,1.411-3.142,1.953
			c-1.136,0.544-2.379,0.959-3.733,1.236C245.433,48.669,243.915,48.809,242.235,48.809z"/>
	</g>
	<path fill="#A31F34" d="M30.614,1.024c-10.866,0-20.325,5.991-25.284,14.845h20.495l13.167,22.804l-11.609,20.11
		c1.062,0.119,2.139,0.192,3.231,0.192c16.003,0,28.975-12.972,28.975-28.976C59.589,13.997,46.617,1.024,30.614,1.024z"/>
	<path fill="#656565" d="M16.416,55.243h5.807l9.567-16.57l-9.567-16.566H3.093l-0.607,1.052C1.954,25.355,1.639,27.638,1.639,30
		C1.639,40.84,7.603,50.274,16.416,55.243z"/>
</g>
</svg>
